<svg xmlns="http://www.w3.org/2000/svg" viewBox="0 0 612 329.76"><defs><style>.cls-1{fill:#fff;}.cls-2,.cls-3{fill:none;}.cls-2{stroke:#eaeaea;stroke-width:2px;}.cls-3{stroke:#207b76;stroke-width:3px;}.cls-4,.cls-5{isolation:isolate;}.cls-5{font-size:15px;fill:#343434;font-family:OpenSans-SemiBold, Open Sans SemiBold;font-weight:600;}</style></defs><g id="Calque_2" data-name="Calque 2"><g id="Calque_1-2" data-name="Calque 1"><g id="Groupe_511" data-name="Groupe 511"><g id="Rectangle_222" data-name="Rectangle 222"><rect class="cls-1" y="0.1" width="611.38" height="329.67" rx="8"/><rect class="cls-2" x="1" y="1.1" width="609.38" height="327.67" rx="7"/></g><line id="Ligne_127" data-name="Ligne 127" class="cls-2" x1="100.48" y1="329.76" x2="100.48"/><line id="Ligne_135" data-name="Ligne 135" class="cls-2" x1="181.68" y1="329.76" x2="181.68"/><line id="Ligne_136" data-name="Ligne 136" class="cls-2" x1="264.01" y1="329.76" x2="264.01"/><line id="Ligne_137" data-name="Ligne 137" class="cls-2" x1="346.34" y1="329.76" x2="346.34"/><line id="Ligne_138" data-name="Ligne 138" class="cls-2" x1="428.67" y1="329.76" x2="428.67"/><line id="Ligne_139" data-name="Ligne 139" class="cls-2" x1="509.85" y1="329.76" x2="509.85"/></g><line id="Ligne_140" data-name="Ligne 140" class="cls-2" x1="0.56" y1="70.5" x2="612" y2="70.5"/><line id="Ligne_141" data-name="Ligne 141" class="cls-2" x1="0.56" y1="172.65" x2="612" y2="172.65"/><line id="Ligne_142" data-name="Ligne 142" class="cls-2" x1="0.56" y1="274.8" x2="612" y2="274.8"/><g id="Groupe_510" data-name="Groupe 510"><path id="Tracé_338" data-name="Tracé 338" class="cls-3" d="M60.63,263.84l81.61-115.12,81.18,84.38,82.72-160,81.52,36,81.82,115L551,157.19"/><g id="Ellipse_103" data-name="Ellipse 103"><circle class="cls-1" cx="59.89" cy="262.7" r="8.7"/><circle class="cls-3" cx="59.89" cy="262.7" r="7.2"/></g><g id="Ellipse_103-2" data-name="Ellipse 103-2"><circle class="cls-1" cx="142.1" cy="147.52" r="9.21"/><circle class="cls-3" cx="142.1" cy="147.52" r="7.71"/></g><g id="Ellipse_103-3" data-name="Ellipse 103-3"><circle class="cls-1" cx="223.4" cy="234.04" r="9.73"/><circle class="cls-3" cx="223.4" cy="234.04" r="8.23"/></g><g id="Ellipse_103-4" data-name="Ellipse 103-4"><circle class="cls-1" cx="305.19" cy="73.3" r="8.7"/><circle class="cls-3" cx="305.19" cy="73.3" r="7.2"/></g><g id="Ellipse_103-5" data-name="Ellipse 103-5"><circle class="cls-1" cx="387.5" cy="109.64" r="9.21"/><circle class="cls-3" cx="387.5" cy="109.64" r="7.71"/></g><g id="Ellipse_103-6" data-name="Ellipse 103-6"><circle class="cls-1" cx="469.29" cy="223.29" r="9.21"/><circle class="cls-3" cx="469.29" cy="223.29" r="7.71"/></g><g id="Ellipse_103-7" data-name="Ellipse 103-7"><circle class="cls-1" cx="549.95" cy="156.74" r="9.21"/><circle class="cls-3" cx="549.95" cy="156.74" r="7.71"/></g><g id="Sam." class="cls-4"><text class="cls-5" transform="translate(281.06 51.93)">Sam.</text></g><g id="Ven." class="cls-4"><text class="cls-5" transform="translate(203.39 263.86)">Ven.</text></g><g id="Jeu." class="cls-4"><text class="cls-5" transform="translate(121.83 122.57)">Jeu.</text></g><g id="Mer." class="cls-4"><text class="cls-5" transform="translate(44.02 289.45)">Mer.</text></g><g id="Dim." class="cls-4"><text class="cls-5" transform="translate(365.79 87.76)">Dim.</text></g><g id="Lun." class="cls-4"><text class="cls-5" transform="translate(448.6 253.62)">Lun.</text></g><g id="Mar." class="cls-4"><text class="cls-5" transform="translate(529.48 131.79)">Mar.</text></g></g></g></g></svg>