<svg id="Calque_1" data-name="Calque 1" xmlns="http://www.w3.org/2000/svg" viewBox="0 0 280 80"><defs><style>.cls-1{fill:#207b76;}.cls-2{fill:#343434;}</style></defs><g id="Groupe_286" data-name="Groupe 286"><path id="Tracé_253" data-name="Tracé 253" class="cls-1" d="M68.49,39.05A27.69,27.69,0,1,0,57.67,63.1a1.36,1.36,0,0,0,.27-1.92l0,0L48.23,49.36a2.59,2.59,0,0,0-2.78-.89c-1.23.41-2.66.08-4.3-1.55-.16-.17-4.06-4.07-5.31-5.31a.54.54,0,0,1,0-.76h0a.57.57,0,0,1,.8,0l4.92,4.92a.57.57,0,0,0,.8.07.56.56,0,0,0,.07-.8L42.36,45l-4.92-4.92a.57.57,0,0,1,0-.8h0a.57.57,0,0,1,.8,0l4.92,4.92a.57.57,0,0,0,.8-.8L39,38.45a.57.57,0,0,1,0-.8h0a.58.58,0,0,1,.8,0h0l4.93,4.92a.57.57,0,0,0,.8-.07.59.59,0,0,0,0-.73l-4.93-4.92a.57.57,0,0,1,0-.8h0a.54.54,0,0,1,.76,0l5.31,5.31c1.64,1.63,2,3.07,1.56,4.3a2.6,2.6,0,0,0,.89,2.78l11.77,9.67a1.38,1.38,0,0,0,1.93-.19l0,0A27.6,27.6,0,0,0,68.49,39.05ZM39.69,50A1.17,1.17,0,0,1,42,50V59.4a1.17,1.17,0,0,1-2.34,0ZM21.41,41a1.17,1.17,0,0,1,1.17-1.17h9.36a1.17,1.17,0,0,1,0,2.34H22.58A1.17,1.17,0,0,1,21.41,41ZM34,49.07,29.12,54a.88.88,0,0,1-1.23,0,.87.87,0,0,1,0-1.23l0,0,4.87-4.88a.88.88,0,0,1,1.22,0,.86.86,0,0,1,0,1.22Zm0-15a.86.86,0,0,1-.6.25h0a.86.86,0,0,1-.61-.25L27.9,29.24A.87.87,0,0,1,29.13,28L34,32.87a.85.85,0,0,1,0,1.21Zm8.06-2a1.17,1.17,0,0,1-2.34,0V22.78a1.17,1.17,0,0,1,2.34,0Zm6.32,2.21a.86.86,0,0,1-.87-.86.83.83,0,0,1,.26-.61L52.61,28a.85.85,0,0,1,1.21,0,.85.85,0,0,1,0,1.18L49,34.1a.9.9,0,0,1-.61.25Zm10.85,7.8H49.85a1.17,1.17,0,1,1,0-2.34H59.2a1.17,1.17,0,1,1,0,2.34Z"/><path id="Tracé_254" data-name="Tracé 254" class="cls-1" d="M70.89,47.65A17.31,17.31,0,0,1,70,57,22.79,22.79,0,0,1,56.83,70.11a17.28,17.28,0,0,1-9.3,1h-.07a.17.17,0,0,1-.14-.2.15.15,0,0,1,.13-.13,33.13,33.13,0,0,0,8-3.14,31.86,31.86,0,0,0,12-12,32.5,32.5,0,0,0,3.12-8,.18.18,0,0,1,.21-.13.2.2,0,0,1,.13.14Z"/><path id="Tracé_255" data-name="Tracé 255" class="cls-1" d="M10.9,34.39a17.21,17.21,0,0,1,1-9.28A22.74,22.74,0,0,1,25,12a17.46,17.46,0,0,1,9.27-.95l.07,0a.17.17,0,0,1,.14.2.19.19,0,0,1-.13.13,33.09,33.09,0,0,0-8,3.12,31.91,31.91,0,0,0-12,11.94,32.67,32.67,0,0,0-3.14,8,.17.17,0,0,1-.21.13.17.17,0,0,1-.13-.14Z"/></g><g id="Groupe_287" data-name="Groupe 287"><path id="Tracé_256" data-name="Tracé 256" class="cls-2" d="M92.57,44.41c.34,2.57,2.57,4.43,6.2,4.43a8.6,8.6,0,0,0,5.56-1.94l3.29,3.24a12.8,12.8,0,0,1-8.94,3.38c-7.16,0-11.42-4.43-11.42-11.09,0-6.32,4.3-10.87,11-10.87,7,0,11.3,4.3,10.5,12.85Zm11.3-4.25c-.34-2.7-2.45-4-5.4-4-2.78,0-5,1.35-5.81,4Z"/><path id="Tracé_257" data-name="Tracé 257" class="cls-2" d="M129.23,32.19h4.93V53h-4.84l-.26-3c-1.18,2.45-4.42,3.63-6.74,3.67-6.15,0-10.7-3.75-10.7-11s4.76-10.91,10.83-10.87a7.61,7.61,0,0,1,6.62,3.37ZM116.76,42.56a5.94,5.94,0,0,0,5.56,6.31,5.86,5.86,0,0,0,.59,0c8.09,0,8.09-12.6,0-12.6a5.92,5.92,0,0,0-6.16,5.66c0,.21,0,.41,0,.62Z"/><path id="Tracé_258" data-name="Tracé 258" class="cls-2" d="M152.07,37.71a7,7,0,0,0-5.14-1.85c-2.44,0-3.79.76-3.79,2.06S144.36,40,147,40.2c3.92.25,8.89,1.14,8.89,6.66,0,3.66-3,6.82-8.94,6.82-3.28,0-6.57-.54-9.6-3.7l2.52-3.67c1.48,1.64,4.85,2.86,7.17,2.91,1.94,0,3.75-1,3.75-2.49s-1.18-2-4.13-2.19c-3.92-.29-8.6-1.73-8.6-6.45s5-6.49,8.76-6.49a11.21,11.21,0,0,1,8.1,2.74Z"/><path id="Tracé_259" data-name="Tracé 259" class="cls-2" d="M180.14,32.19,167.45,61.65h-5.64l3.87-9-8.3-20.44h6l3.16,9,2,5.86,2.15-5.73,3.79-9.1Z"/><path id="Tracé_260" data-name="Tracé 260" class="cls-2" d="M200.66,50.31a10.69,10.69,0,0,1-8,3.29c-6,0-11-3.62-11-11s5-11,11-11a9.82,9.82,0,0,1,7.5,3.08l-3.24,3.41a6.26,6.26,0,0,0-4.17-1.64,5.83,5.83,0,0,0-6,5.69c0,.15,0,.31,0,.46A5.67,5.67,0,0,0,192,48.66c.22,0,.44,0,.66,0a6.28,6.28,0,0,0,4.56-1.73Z"/><path id="Tracé_261" data-name="Tracé 261" class="cls-2" d="M208,23.51V53h-5.1V23.51Z"/><path id="Tracé_262" data-name="Tracé 262" class="cls-2" d="M218.15,26.34c0,4-6.07,4-6.07,0S218.15,22.33,218.15,26.34Zm-5.61,5.77V53h5.14V32.11Z"/><path id="Tracé_263" data-name="Tracé 263" class="cls-2" d="M240.14,50.31a10.66,10.66,0,0,1-8,3.29c-6,0-11-3.62-11-11s5-11,11-11a9.85,9.85,0,0,1,7.5,3.08l-3.25,3.41a6.25,6.25,0,0,0-4.17-1.64,5.83,5.83,0,0,0-6,5.69c0,.15,0,.31,0,.46a5.66,5.66,0,0,0,5.23,6.06c.22,0,.44,0,.67,0a6.26,6.26,0,0,0,4.55-1.73Z"/><path id="Tracé_264" data-name="Tracé 264" class="cls-2" d="M247.43,23.51v17l7-8.35h6.15v.3L252.11,42l9.65,10.62V53h-6.2l-8.13-9.4V53h-5.14V23.51Z"/><rect id="Rectangle_154" data-name="Rectangle 154" class="cls-2" x="252.03" y="40.16" width="18.82" height="4.25"/></g></svg>