<svg xmlns="http://www.w3.org/2000/svg" viewBox="0 0 57.63 75.65"><g id="Calque_2" data-name="Calque 2"><g id="Calque_2-2" data-name="Calque 2"><g id="insurance"><path id="Tracé_318" data-name="Tracé 318" d="M57,15.43,42.2.65A2.2,2.2,0,0,0,40.64,0H8.13A8.13,8.13,0,0,0,0,8.13v59.4a8.13,8.13,0,0,0,8.13,8.12H49.5a8.13,8.13,0,0,0,8.13-8.12V17A2.23,2.23,0,0,0,57,15.43ZM42.85,7.57l7.21,7.21H42.85ZM49.5,71.22H8.13a3.7,3.7,0,0,1-3.7-3.69V8.13a3.72,3.72,0,0,1,3.7-3.7H38.42V17a2.21,2.21,0,0,0,2.22,2.22H53.2V67.53A3.7,3.7,0,0,1,49.5,71.22Z"/><path id="Tracé_319" data-name="Tracé 319" d="M43.59,29.85A7.32,7.32,0,0,1,37,25.79l-.31-.63a2.23,2.23,0,0,0-2-1.22H22.9a2.21,2.21,0,0,0-2,1.22l-.31.63A7.32,7.32,0,0,1,14,29.85a2.21,2.21,0,0,0-2.22,2.22V44.71a23,23,0,0,0,16.36,22,2.29,2.29,0,0,0,1.27,0,23,23,0,0,0,16.36-22V32.07A2.22,2.22,0,0,0,43.59,29.85ZM41.38,44.71A18.41,18.41,0,0,1,28.82,62.25,18.39,18.39,0,0,1,16.26,44.71V34.07a11.71,11.71,0,0,0,8-5.69h9.12a11.68,11.68,0,0,0,8,5.69Z"/><path id="Tracé_320" data-name="Tracé 320" d="M33.52,39.62l-6.8,6.79L24.11,43.8A2.21,2.21,0,1,0,21,46.93h0l4.18,4.18a2.2,2.2,0,0,0,3.13,0h0l8.36-8.36a2.21,2.21,0,1,0-3.13-3.13Z"/></g></g></g></svg>