<svg xmlns="http://www.w3.org/2000/svg" viewBox="0 0 81.13 78.88"><g id="Calque_2" data-name="Calque 2"><g id="Calque_1-2" data-name="Calque 1"><g id="social-media"><g id="Groupe_328" data-name="Groupe 328"><path id="Tracé_308" data-name="Tracé 308" d="M58.77,55.47a1.6,1.6,0,1,0,1.6,1.6h0a1.6,1.6,0,0,0-1.59-1.59Z"/><path id="Tracé_309" data-name="Tracé 309" d="M65.9,55.47a1.6,1.6,0,1,0,1.6,1.6h0a1.6,1.6,0,0,0-1.6-1.59Z"/><path id="Tracé_310" data-name="Tracé 310" d="M73,55.47a1.6,1.6,0,1,0,1.6,1.6h0A1.6,1.6,0,0,0,73,55.47Z"/><path id="Tracé_311" data-name="Tracé 311" d="M39.68,29.74a2.9,2.9,0,0,0,2.9,2.9H47a2.89,2.89,0,0,0,2.35-1.21,11.3,11.3,0,0,0,4.05.78H59a7.39,7.39,0,0,0,7.38-7.38v-4a5.31,5.31,0,0,0-5.31-5.31H59.6V12.06a4,4,0,0,0-4-4c-2.58,0-3.53,2.48-3.89,3.42l-1.38,3.62a2.29,2.29,0,0,1-.61,1A2.91,2.91,0,0,0,47,14.23H42.58a2.9,2.9,0,0,0-2.9,2.9ZM49.92,19.43a4.45,4.45,0,0,0,3.39-3.18l1.38-3.62c.53-1.38.81-1.38.93-1.38a.82.82,0,0,1,.81.82v5A1.58,1.58,0,0,0,58,18.64h3.07a2.14,2.14,0,0,1,2.14,2.14v4.06A4.22,4.22,0,0,1,59,29.05H53.42a7.61,7.61,0,0,1-3.5-.86Zm-7.07-2h3.9V29.47h-3.9Z"/><path id="Tracé_312" data-name="Tracé 312" d="M77.49,48H57.19a29.12,29.12,0,0,0-.56-3.84l.71-.12A22.2,22.2,0,1,0,44.06,2a1.59,1.59,0,1,0,1.31,2.89h0A19,19,0,1,1,46.51,40a1.59,1.59,0,0,0-1.28.06A15,15,0,0,1,36,41.48a14.86,14.86,0,0,0,1.46-8.32,1.59,1.59,0,0,0-.25-.73A19,19,0,0,1,36.16,13.9a1.58,1.58,0,0,0-2.85-1.38,22,22,0,0,0-2.23,9.18c-.81-.07-1.62-.1-2.43-.1A28.64,28.64,0,1,0,48.9,70.48a29.32,29.32,0,0,0,3.79-4.67,3.72,3.72,0,0,0,1.54.34H77.49a3.64,3.64,0,0,0,3.64-3.65V51.64A3.64,3.64,0,0,0,77.49,48ZM36.94,44.77a9.13,9.13,0,1,1-8.3-5.32A8.87,8.87,0,0,1,33,40.53c-.21.4-.44.82-.7,1.27A1.59,1.59,0,0,0,32.81,44a1.86,1.86,0,0,0,.41.17,21.26,21.26,0,0,0,3.72.63ZM10.64,68.24A25.47,25.47,0,0,1,31.25,24.9c.06.46.12.91.21,1.37a22,22,0,0,0,2.89,7.53,12.45,12.45,0,0,1-.26,3.75,12.28,12.28,0,0,0-14.8,19A18.06,18.06,0,0,0,11,68.6l-.36-.35Zm18,7.46A25.24,25.24,0,0,1,13.9,71a14.83,14.83,0,0,1,7.88-12.27,12.23,12.23,0,0,0,13.73,0A14.81,14.81,0,0,1,43.39,71a25.23,25.23,0,0,1-14.75,4.7Zm18-7.46-.37.36A18.06,18.06,0,0,0,38,56.5a12.24,12.24,0,0,0,2.32-11.76A18,18,0,0,0,46,43.18a22.23,22.23,0,0,0,7.41,1.21A26,26,0,0,1,54,48a3.65,3.65,0,0,0-3.43,3.64v1.12l-4.52,3a1.58,1.58,0,0,0-.45,2.19,1.61,1.61,0,0,0,.45.45l4.52,3V62.5a3.92,3.92,0,0,0,0,.59,25.5,25.5,0,0,1-4,5.15ZM78,62.5a.49.49,0,0,1-.48.48H54.23a.48.48,0,0,1-.47-.48v-2a1.59,1.59,0,0,0-.71-1.32l-3.24-2.15,3.24-2.15a1.59,1.59,0,0,0,.71-1.32v-2a.47.47,0,0,1,.47-.48H77.49a.49.49,0,0,1,.48.48Z"/><path id="Tracé_313" data-name="Tracé 313" d="M38.89,9a1.59,1.59,0,0,0,0-3.17,1.64,1.64,0,0,0-1.13.46h0a1.59,1.59,0,0,0,0,2.24A1.55,1.55,0,0,0,38.89,9Z"/></g></g></g></g></svg>