<svg xmlns="http://www.w3.org/2000/svg" viewBox="0 0 58.56 54.9"><g id="Calque_2" data-name="Calque 2"><g id="Calque_1-2" data-name="Calque 1"><g id="browser"><g id="Groupe_315" data-name="Groupe 315"><g id="Groupe_314" data-name="Groupe 314"><path id="Tracé_301" data-name="Tracé 301" d="M36.14,4.58a1.14,1.14,0,1,0,1.15,1.14h0A1.15,1.15,0,0,0,36.14,4.58Z"/></g></g><g id="Groupe_317" data-name="Groupe 317"><g id="Groupe_316" data-name="Groupe 316"><path id="Tracé_302" data-name="Tracé 302" d="M17.84,4.58A1.14,1.14,0,1,0,19,5.72a1.14,1.14,0,0,0-1.15-1.14Z"/></g></g><g id="Groupe_319" data-name="Groupe 319"><g id="Groupe_318" data-name="Groupe 318"><path id="Tracé_303" data-name="Tracé 303" d="M13.27,4.58a1.14,1.14,0,1,0,1.14,1.14h0A1.14,1.14,0,0,0,13.27,4.58Z"/></g></g><g id="Groupe_321" data-name="Groupe 321"><g id="Groupe_320" data-name="Groupe 320"><path id="Tracé_304" data-name="Tracé 304" d="M8.69,4.58A1.14,1.14,0,1,0,9.84,5.72h0A1.15,1.15,0,0,0,8.69,4.58Z"/></g></g><g id="Groupe_323" data-name="Groupe 323"><g id="Groupe_322" data-name="Groupe 322"><path id="Tracé_305" data-name="Tracé 305" d="M55.13,0H3.43A3.44,3.44,0,0,0,0,3.43v48A3.44,3.44,0,0,0,3.43,54.9h51.7a3.44,3.44,0,0,0,3.43-3.43v-48A3.44,3.44,0,0,0,55.13,0Zm1.14,51.47a1.14,1.14,0,0,1-1.14,1.14H3.43a1.14,1.14,0,0,1-1.14-1.14v-40h54Zm0-42.32h-54V3.44A1.14,1.14,0,0,1,3.43,2.29h51.7a1.14,1.14,0,0,1,1.14,1.15Z"/></g></g><g id="Groupe_325" data-name="Groupe 325"><g id="Groupe_324" data-name="Groupe 324"><path id="Tracé_306" data-name="Tracé 306" d="M50.55,4.58H40.72a1.14,1.14,0,0,0,0,2.28h9.83a1.14,1.14,0,0,0,0-2.28Z"/></g></g><g id="Groupe_327" data-name="Groupe 327"><g id="Groupe_326" data-name="Groupe 326"><path id="Tracé_307" data-name="Tracé 307" d="M41.74,39.52a1.13,1.13,0,0,0-1-.63H38.43V36.6H43a1.15,1.15,0,0,0,0-2.29H38.43V32h2.29a1.13,1.13,0,0,0,1-.63L44,26.82a1.14,1.14,0,0,0-.49-1.54,1.13,1.13,0,0,0-1.54.48l0,0-2,3.95H38.23a3.39,3.39,0,0,0-2.09-2.09v-.2a6.86,6.86,0,0,0-3.71-6.1l2.38-3.56a1.16,1.16,0,0,0-.36-1.58,1.14,1.14,0,0,0-1.55.31l-2.75,4.12a7.32,7.32,0,0,0-1.75,0l-2.74-4.12a1.15,1.15,0,0,0-1.91,1.27l2.38,3.56a6.86,6.86,0,0,0-3.71,6.1v.19a3.44,3.44,0,0,0-2.09,2.09H18.55l-2-3.94a1.14,1.14,0,0,0-2.06,1v0l2.29,4.58a1.13,1.13,0,0,0,1,.63h2.29v2.29H15.55a1.14,1.14,0,0,0-1.17,1.11A1.16,1.16,0,0,0,15.5,36.6h4.63v2.28H17.84a1.14,1.14,0,0,0-1,.64l-2.29,4.57a1.14,1.14,0,0,0,2,1l2-3.94h1.87a9.15,9.15,0,0,0,17.72,0H40l2,3.94a1.15,1.15,0,0,0,2.05-1Zm-13.6,6.13a6.87,6.87,0,0,1-5.72-6.76v-8a1.14,1.14,0,0,1,1.14-1.14h4.58ZM24.7,27.45A4.57,4.57,0,0,1,28.15,23a4.8,4.8,0,0,1,2.26,0,4.58,4.58,0,0,1,3.44,4.44ZM36.14,38.88a6.88,6.88,0,0,1-5.72,6.77V29.74H35a1.14,1.14,0,0,1,1.14,1.14Z"/></g></g></g></g></g></svg>