<svg xmlns="http://www.w3.org/2000/svg" viewBox="0 0 27 36"><defs><style>.cls-1{fill:#636363;}</style></defs><g id="Calque_2" data-name="Calque 2"><g id="Calque_1-2" data-name="Calque 1"><g id="shopping-list"><g id="Groupe_240" data-name="Groupe 240"><g id="Groupe_239" data-name="Groupe 239"><path id="Tracé_253" data-name="Tracé 253" class="cls-1" d="M19.13,2.25H16.68a3.37,3.37,0,0,0-6.36,0H7.88A1.12,1.12,0,0,0,6.75,3.37h0v4.5A1.12,1.12,0,0,0,7.88,9H19.13a1.12,1.12,0,0,0,1.12-1.12V3.38A1.12,1.12,0,0,0,19.13,2.25Z"/></g></g><g id="Groupe_242" data-name="Groupe 242"><g id="Groupe_241" data-name="Groupe 241"><path id="Tracé_254" data-name="Tracé 254" class="cls-1" d="M24.75,4.5H22.5V7.88a3.37,3.37,0,0,1-3.37,3.37H7.88A3.37,3.37,0,0,1,4.5,7.88V4.5H2.25A2.25,2.25,0,0,0,0,6.75v27A2.22,2.22,0,0,0,2.2,36H24.75A2.22,2.22,0,0,0,27,33.8v-27A2.22,2.22,0,0,0,24.8,4.5ZM13.17,24.42l-4.5,4.5a1.12,1.12,0,0,1-1.59,0L4.83,26.67a1.12,1.12,0,0,1,1.59-1.59l1.46,1.46,3.7-3.7a1.12,1.12,0,0,1,1.59,1.59Zm0-9-4.5,4.5a1.12,1.12,0,0,1-1.59,0L4.83,17.67a1.12,1.12,0,0,1,1.59-1.59l1.46,1.45,3.7-3.7a1.13,1.13,0,0,1,1.59,1.6ZM21.37,27h-4.5a1.13,1.13,0,0,1,0-2.25h4.5a1.13,1.13,0,1,1,0,2.25Zm0-9h-4.5a1.13,1.13,0,0,1,0-2.25h4.5a1.13,1.13,0,1,1,0,2.25Z"/></g></g></g></g></g></svg>