<svg xmlns="http://www.w3.org/2000/svg" viewBox="0 0 30.42 31.11"><g id="Calque_2" data-name="Calque 2"><g id="Calque_1-2" data-name="Calque 1"><g id="calendar"><g id="Groupe_173" data-name="Groupe 173"><g id="Groupe_172" data-name="Groupe 172"><path id="Tracé_194" data-name="Tracé 194" d="M11,17.17a.71.71,0,0,0-.7-.71H7.82a.7.7,0,0,0-.7.71v2.46a.7.7,0,0,0,.7.71h2.47a.71.71,0,0,0,.7-.71Z"/><path id="Tracé_195" data-name="Tracé 195" d="M17.15,17.17a.71.71,0,0,0-.71-.71H14a.71.71,0,0,0-.71.71v2.46a.71.71,0,0,0,.71.71h2.46a.71.71,0,0,0,.71-.71Z"/><path id="Tracé_196" data-name="Tracé 196" d="M23.31,17.17a.71.71,0,0,0-.71-.71H20.14a.71.71,0,0,0-.71.71v2.46a.71.71,0,0,0,.71.71H22.6a.7.7,0,0,0,.7-.71Z"/><path id="Tracé_197" data-name="Tracé 197" d="M11,23.32a.71.71,0,0,0-.7-.7H7.82a.7.7,0,0,0-.7.7v2.47a.7.7,0,0,0,.7.7h2.47a.7.7,0,0,0,.7-.7Z"/><path id="Tracé_198" data-name="Tracé 198" d="M17.15,23.32a.71.71,0,0,0-.71-.7H14a.71.71,0,0,0-.71.7v2.47a.7.7,0,0,0,.71.7h2.46a.7.7,0,0,0,.71-.7Z"/><path id="Tracé_199" data-name="Tracé 199" d="M23.31,23.32a.71.71,0,0,0-.71-.7H20.14a.71.71,0,0,0-.71.7v2.47a.7.7,0,0,0,.71.7H22.6a.7.7,0,0,0,.71-.7V23.32Z"/><path id="Tracé_200" data-name="Tracé 200" d="M27.72,3.46V7.23a3.08,3.08,0,0,1-3.08,3.07H22.69a3.09,3.09,0,0,1-3.1-3.07V3.45H10.83V7.23a3.09,3.09,0,0,1-3.1,3.07H5.79A3.07,3.07,0,0,1,2.71,7.23h0V3.46A2.81,2.81,0,0,0,0,6.25V28.31a2.81,2.81,0,0,0,2.79,2.8H27.64a2.8,2.8,0,0,0,2.78-2.8V6.25A2.8,2.8,0,0,0,27.72,3.46Zm-.9,23.47a1.21,1.21,0,0,1-1.21,1.21H4.76a1.21,1.21,0,0,1-1.2-1.21h0V15.54a1.2,1.2,0,0,1,1.2-1.2H25.61a1.2,1.2,0,0,1,1.2,1.2h0V26.93Z"/><path id="Tracé_201" data-name="Tracé 201" d="M5.78,8.28H7.7a1.05,1.05,0,0,0,1.06-1h0V1.06A1.05,1.05,0,0,0,7.71,0H5.78a1.05,1.05,0,0,0-1,1.06h0V7.23a1,1,0,0,0,1,1Z"/><path id="Tracé_202" data-name="Tracé 202" d="M22.67,8.28h1.92a1.06,1.06,0,0,0,1.06-1V1.06A1.06,1.06,0,0,0,24.59,0H22.67a1.05,1.05,0,0,0-1.06,1.05h0V7.23a1.05,1.05,0,0,0,1.06,1Z"/></g></g></g></g></g></svg>