<svg xmlns="http://www.w3.org/2000/svg" viewBox="0 0 32.08 32.08"><g id="Calque_2" data-name="Calque 2"><g id="Calque_1-2" data-name="Calque 1"><g id="wallet"><g id="Groupe_181" data-name="Groupe 181"><g id="Groupe_180" data-name="Groupe 180"><g id="Groupe_179" data-name="Groupe 179"><path id="Tracé_214" data-name="Tracé 214" d="M29.9,26.25H24.8a5.84,5.84,0,0,1,0-11.67h5.1a.73.73,0,0,0,.73-.73h0V11.66a2.92,2.92,0,0,0-2.69-2.89L23.75,1.46A2.88,2.88,0,0,0,19.82.38h0L5.44,8.75H2.92A2.91,2.91,0,0,0,0,11.66v17.5a2.92,2.92,0,0,0,2.92,2.92H27.71a2.92,2.92,0,0,0,2.92-2.92V27A.73.73,0,0,0,29.9,26.25ZM24.66,6l1.59,2.78H19.89ZM8.34,8.75l12.19-7.1a1.37,1.37,0,0,1,1.08-.15,1.43,1.43,0,0,1,.88.68h0L11.22,8.75Z"/><path id="Tracé_215" data-name="Tracé 215" d="M29.9,16H24.8a4.38,4.38,0,0,0,0,8.75h5.1a2.19,2.19,0,0,0,2.18-2.19V18.22A2.19,2.19,0,0,0,29.9,16Zm-5.1,5.83a1.46,1.46,0,1,1,1.45-1.46,1.46,1.46,0,0,1-1.45,1.46Z"/></g></g></g></g></g></g></svg>