<svg xmlns="http://www.w3.org/2000/svg" viewBox="0 0 25 25"><defs><style>.cls-1{fill:#367c76;}.cls-2{fill:#fff;fill-rule:evenodd;}</style></defs><g id="Calque_2" data-name="Calque 2"><g id="Calque_1-2" data-name="Calque 1"><g id="Groupe_425" data-name="Groupe 425"><rect id="Rectangle_130" data-name="Rectangle 130" class="cls-1" width="25" height="25" rx="6"/><g id="x"><path id="Tracé_139" data-name="Tracé 139" class="cls-2" d="M19,12.5a.58.58,0,0,1-.59.59H6.62a.58.58,0,0,1-.57-.61.6.6,0,0,1,.57-.58H18.38a.59.59,0,0,1,.59.6Z"/><path id="Tracé_140" data-name="Tracé 140" class="cls-2" d="M12.5,6a.58.58,0,0,0-.59.59h0V18.38a.59.59,0,0,0,1.18,0V6.62A.58.58,0,0,0,12.5,6Z"/></g></g></g></g></svg>