<svg xmlns="http://www.w3.org/2000/svg" viewBox="0 0 64.56 19.57"><defs><style>.cls-1{fill:#3c58bf;}.cls-2{fill:#293688;}.cls-3{fill:#ffbc00;}.cls-4{fill:#f7981d;}.cls-5{fill:#ed7c00;}.cls-6{fill:#051244;}</style></defs><g id="Calque_2" data-name="Calque 2"><g id="Calque_1-2" data-name="Calque 1"><path id="Tracé_267" data-name="Tracé 267" class="cls-1" d="M23.67,19.06,27,.62h5.12L28.9,19.06Z"/><path id="Tracé_268" data-name="Tracé 268" class="cls-2" d="M23.67,19.06,27.87.62h4.2L28.9,19.06Z"/><path id="Tracé_269" data-name="Tracé 269" class="cls-1" d="M47.45.82A13.11,13.11,0,0,0,42.73,0c-5.12,0-8.81,2.56-8.81,6.25,0,2.77,2.56,4.2,4.61,5.13s2.67,1.53,2.67,2.35c0,1.23-1.64,1.85-3.08,1.85a11.3,11.3,0,0,1-4.92-1l-.72-.31-.71,4.21a16.63,16.63,0,0,0,5.84,1c5.43,0,9-2.56,9-6.46,0-2.15-1.34-3.79-4.41-5.12-1.85-.92-3-1.43-3-2.36s.92-1.64,3-1.64a9.44,9.44,0,0,1,3.89.72l.51.21.82-4Z"/><path id="Tracé_270" data-name="Tracé 270" class="cls-2" d="M47.45.82A13.11,13.11,0,0,0,42.73,0c-5.12,0-7.89,2.56-7.89,6.25,0,2.77,1.64,4.2,3.69,5.13s2.67,1.53,2.67,2.35c0,1.23-1.64,1.85-3.08,1.85a11.27,11.27,0,0,1-4.92-1l-.72-.31-.71,4.21a16.63,16.63,0,0,0,5.84,1c5.43,0,9-2.56,9-6.46,0-2.15-1.34-3.79-4.41-5.12-1.85-.92-3-1.43-3-2.36s.92-1.64,3-1.64a9.44,9.44,0,0,1,3.89.72l.51.21.82-4Z"/><path id="Tracé_271" data-name="Tracé 271" class="cls-1" d="M56.26.62C55,.62,54.1.72,53.59,2L45.91,19.06h5.53l1-3.07H59l.61,3.07h4.92L60.25.62ZM53.9,12.91C54.21,12,56,7.48,56,7.48s.41-1.13.72-1.84L57,7.38S58,12,58.2,13H53.9Z"/><path id="Tracé_272" data-name="Tracé 272" class="cls-2" d="M57.49.62c-1.23,0-2.15.1-2.67,1.33L45.91,19.06h5.53l1-3.07H59l.61,3.07h4.92L60.25.62ZM53.9,12.91c.42-1,2.05-5.43,2.05-5.43s.41-1.13.72-1.84L57,7.38S58,12,58.2,13H53.9Z"/><path id="Tracé_273" data-name="Tracé 273" class="cls-1" d="M14.24,13.53l-.51-2.67A14.84,14.84,0,0,0,6.56,2.77l4.61,16.39H16.7L25,.72H19.47Z"/><path id="Tracé_274" data-name="Tracé 274" class="cls-2" d="M14.24,13.53l-.51-2.67A14.84,14.84,0,0,0,6.56,2.77l4.61,16.39H16.7L25,.72H20.49Z"/><path id="Tracé_275" data-name="Tracé 275" class="cls-3" d="M0,.62l.92.2C7.48,2.36,12,6.25,13.73,10.86L11.89,2.15C11.58.92,10.66.62,9.53.62Z"/><path id="Tracé_276" data-name="Tracé 276" class="cls-4" d="M0,.62H0C6.56,2.15,12,6.15,13.73,10.76L12,3.49A2.5,2.5,0,0,0,9.53,1.54Z"/><path id="Tracé_277" data-name="Tracé 277" class="cls-5" d="M0,.62H0C6.56,2.15,12,6.15,13.73,10.76l-1.23-4c-.31-1.22-.72-2.46-2.15-3Z"/><g id="Groupe_276" data-name="Groupe 276"><path id="Tracé_278" data-name="Tracé 278" class="cls-6" d="M19.37,12.91,15.88,9.43l-1.64,3.89-.41-2.56a14.83,14.83,0,0,0-7.17-8.1l4.61,16.4H16.8Z"/><path id="Tracé_279" data-name="Tracé 279" class="cls-6" d="M28.9,19.06l-4.41-4.51-.82,4.51Z"/><path id="Tracé_280" data-name="Tracé 280" class="cls-6" d="M40.68,12.71h0c.42.41.62.72.51,1.13,0,1.22-1.64,1.84-3.07,1.84a11,11,0,0,1-4.92-1l-.72-.3-.71,4.2a16.37,16.37,0,0,0,5.84,1c3.28,0,5.94-.92,7.48-2.56Z"/><path id="Tracé_281" data-name="Tracé 281" class="cls-6" d="M46.63,19.06h4.81l1-3.07H59l.62,3.07h4.92l-1.74-7.48L56.67,5.64,57,7.28s1,4.61,1.23,5.63H53.9c.42-1,2.05-5.43,2.05-5.43s.42-1.13.72-1.84"/></g></g></g></svg>