<svg xmlns="http://www.w3.org/2000/svg" viewBox="0 0 33.46 32.35"><g id="Calque_2" data-name="Calque 2"><g id="Calque_1-2" data-name="Calque 1"><g id="megaphone"><path id="Tracé_209" data-name="Tracé 209" d="M27.29,18.52A34.36,34.36,0,0,0,13,22.26L7.43,25.47a3.06,3.06,0,0,1-4.19-1.12L.41,19.46a3.08,3.08,0,0,1,1.12-4.19l4.61-2.66a.54.54,0,0,1,.76.2l3.62,6.26a.55.55,0,0,0,.76.21h0a.57.57,0,0,0,.17-.77L7.83,12.19A.56.56,0,0,1,8,11.45a34.21,34.21,0,0,0,9.49-9.91,2.34,2.34,0,0,1,4,.08L29.22,15a2.33,2.33,0,0,1-.85,3.19A2.29,2.29,0,0,1,27.29,18.52Zm1-9.33a3.5,3.5,0,0,0-2.23-3.85.56.56,0,0,0-.71.34.57.57,0,0,0,0,.46l1.87,3.23a.56.56,0,0,0,.76.21A.6.6,0,0,0,28.28,9.19ZM15.41,28.92l-2.65-4.59a.55.55,0,0,0-.76-.2l-3.4,2a.54.54,0,0,0-.2.76l2.65,4.59a1.81,1.81,0,0,0,1.57.91c.6,0,.84-.2,2.13-1A1.82,1.82,0,0,0,15.41,28.92ZM32.35,5a.56.56,0,0,0-.56-1l-1.44.84a.54.54,0,0,0-.2.76.56.56,0,0,0,.48.28C30.83,5.86,30.79,5.85,32.35,5ZM27.22,2.06,27.57.74A.55.55,0,0,0,27.23,0a.56.56,0,0,0-.71.34.29.29,0,0,0,0,.09l-.35,1.31a.56.56,0,0,0,.36.7.55.55,0,0,0,.7-.37.06.06,0,0,0,0,0Zm6.22,8.84a.55.55,0,0,0-.4-.68l-1.31-.35a.56.56,0,1,0-.33,1.06h0a8.22,8.22,0,0,0,1.46.37.56.56,0,0,0,.54-.41Z"/></g></g></g></svg>