<svg xmlns="http://www.w3.org/2000/svg" viewBox="0 0 53.17 13.58"><defs><style>.cls-1{fill:#139ad6;}.cls-2{fill:#263b80;}.cls-3{fill:#232c65;}</style></defs><g id="Calque_2" data-name="Calque 2"><g id="Calque_1-2" data-name="Calque 1"><path id="Tracé_282" data-name="Tracé 282" class="cls-1" d="M41.1,3.54H38.23a.56.56,0,0,0-.42.34l-1.19,7.43a.23.23,0,0,0,.19.25H38.4a.22.22,0,0,0,.25-.19v-.06L39,9.2a.38.38,0,0,1,.42-.34h.93a2.94,2.94,0,0,0,3.29-2.78,2.24,2.24,0,0,0-.34-1.86,3.46,3.46,0,0,0-2.19-.68m.33,2.79c-.16,1-.92,1-1.68,1h-.51l.34-1.94c0-.08.08-.17.25-.17H40c.51,0,1,0,1.26.34.17.08.17.34.17.76"/><g id="Groupe_277" data-name="Groupe 277"><path id="Tracé_283" data-name="Tracé 283" class="cls-2" d="M20.42,3.54H17.55a.58.58,0,0,0-.42.34L16,11.31a.22.22,0,0,0,.19.25h1.41a.57.57,0,0,0,.43-.34l.33-2a.4.4,0,0,1,.43-.34h.92A2.94,2.94,0,0,0,23,6.08a2.23,2.23,0,0,0-.33-1.86,3.24,3.24,0,0,0-2.2-.68m.34,2.79c-.17,1-.93,1-1.69,1h-.42L19,5.4c0-.08.08-.17.25-.17h.17c.51,0,1,0,1.27.34a.92.92,0,0,1,.08.76"/><path id="Tracé_284" data-name="Tracé 284" class="cls-2" d="M29.12,6.24H27.77c-.09,0-.26.09-.26.17l-.08.43-.09-.17a2,2,0,0,0-1.6-.59,3.24,3.24,0,0,0-3.12,2.78,2.51,2.51,0,0,0,.5,2.11,2.13,2.13,0,0,0,1.78.67,2.69,2.69,0,0,0,1.94-.75l-.09.42a.22.22,0,0,0,.19.25h1.33a.54.54,0,0,0,.42-.34l.76-4.72c-.08-.09-.25-.26-.34-.26m-1.94,2.7a1.64,1.64,0,0,1-1.6,1.36,1.44,1.44,0,0,1-.93-.34,1.81,1.81,0,0,1-.25-1A1.51,1.51,0,0,1,26,7.6a1.58,1.58,0,0,1,.8.33,1.51,1.51,0,0,1,.33,1"/></g><path id="Tracé_285" data-name="Tracé 285" class="cls-1" d="M49.7,6.24H48.35c-.08,0-.25.09-.25.17L48,6.84l-.09-.17a2,2,0,0,0-1.6-.59,3.24,3.24,0,0,0-3.12,2.78,2.51,2.51,0,0,0,.5,2.11,2.12,2.12,0,0,0,1.78.67,2.69,2.69,0,0,0,1.94-.75l-.09.42a.22.22,0,0,0,.19.25h1.33a.54.54,0,0,0,.42-.34L50,6.5c-.08-.09-.17-.26-.34-.26m-1.94,2.7a1.64,1.64,0,0,1-1.6,1.36,1.44,1.44,0,0,1-.93-.34A1.81,1.81,0,0,1,45,9a1.5,1.5,0,0,1,2.44-1,1,1,0,0,1,.34,1"/><path id="Tracé_286" data-name="Tracé 286" class="cls-2" d="M36.46,6.24H35a.49.49,0,0,0-.34.17L32.83,9.28,32,6.58a.39.39,0,0,0-.42-.25H30.21c-.17,0-.25.17-.25.34l1.51,4.47-1.43,2c-.09.17,0,.42.17.42h1.35a.46.46,0,0,0,.34-.16l4.64-6.67c.25-.25.08-.51-.09-.51"/><path id="Tracé_287" data-name="Tracé 287" class="cls-1" d="M51.31,3.8l-1.18,7.59a.23.23,0,0,0,.19.26h1.24a.56.56,0,0,0,.42-.34l1.19-7.43A.23.23,0,0,0,53,3.63H51.56c-.08-.09-.17,0-.25.17"/><path id="Tracé_288" data-name="Tracé 288" class="cls-2" d="M9.71,1A4.19,4.19,0,0,0,6.5,0H2.28a.72.72,0,0,0-.59.51L0,11.56A.38.38,0,0,0,.34,12H3l.67-4.13V8a.71.71,0,0,1,.59-.5H5.49c2.44,0,4.3-1,4.89-3.8V3.46h0A2.91,2.91,0,0,0,9.7,1"/><path id="Tracé_289" data-name="Tracé 289" class="cls-1" d="M10.3,3.46h0v.25c-.59,2.87-2.45,3.8-4.9,3.8H4.14A.72.72,0,0,0,3.55,8L2.7,13.16A.32.32,0,0,0,3,13.5H5.23a.48.48,0,0,0,.51-.42V13l.42-2.61v-.17a.48.48,0,0,1,.51-.42H7c2.11,0,3.8-.85,4.22-3.38a3.08,3.08,0,0,0-.42-2.53.87.87,0,0,0-.5-.42"/><path id="Tracé_290" data-name="Tracé 290" class="cls-3" d="M9.71,3.21c-.09,0-.17-.09-.26-.09A.33.33,0,0,1,9.2,3,4.5,4.5,0,0,0,8.1,3H4.81A.3.3,0,0,0,4.56,3a.44.44,0,0,0-.25.42L3.63,7.85V8a.72.72,0,0,1,.59-.51H5.49c2.44,0,4.3-1,4.89-3.8a.33.33,0,0,1,.08-.25c-.16-.08-.25-.17-.42-.17s-.25-.08-.33-.08"/></g></g></svg>