<svg xmlns="http://www.w3.org/2000/svg" viewBox="0 0 144.9 28.4"><defs><style>.cls-1{fill:#e60028;}.cls-2{fill:#fff;}</style></defs><g id="Calque_2" data-name="Calque 2"><g id="Calque_2-2" data-name="Calque 2"><path id="rect4" class="cls-1" d="M0,.1H28.3V14.6H0Z"/><path id="rect6" d="M0,14.2H28.3V28.4H0Z"/><g id="g22"><g id="g20"><g id="g18"><g id="g16"><g id="g14"><g id="g12"><g id="g10"><path id="rect8" class="cls-2" d="M4.9,13.4H23.3v1.7H4.9Z"/></g></g></g></g></g></g></g><g id="g92"><path id="path62" d="M47.2,3.2a13.4,13.4,0,0,0-4.6-1.1c-2.1,0-3.2.5-3.2,1.3,0,2.3,9.5.5,9.5,5.5,0,2.1-1.9,3.7-5.8,3.7A12.46,12.46,0,0,1,36.9,11l.9-1.9a10.68,10.68,0,0,0,5.3,1.5c2.3,0,3.5-.7,3.5-1.7,0-2.6-9.5-.6-9.5-5.3,0-2,1.9-3.4,5.4-3.4A12.38,12.38,0,0,1,48,1.5Z"/><path id="path64" d="M57.7,12.6c-3.8,0-6.9-2.5-6.9-6.3S53.9,0,57.7,0s6.9,2.6,6.9,6.3-3.1,6.3-6.9,6.3m0-10.5a4.31,4.31,0,1,0,0,8.6c2.8,0,4.6-1.8,4.6-4.3a4.29,4.29,0,0,0-4.6-4.3"/><path id="path66" d="M73.6,12.6c-4,0-7-2.5-7-6.3s3-6.3,7-6.3a8.84,8.84,0,0,1,5.5,1.8L77.9,3.5A7.17,7.17,0,0,0,73.6,2c-2.9,0-4.7,1.8-4.7,4.2s1.8,4.2,4.7,4.2A6.9,6.9,0,0,0,77.9,9l1.2,1.7a7.68,7.68,0,0,1-5.5,1.9"/><path id="rect68" d="M81.6.4h2.2V12.3H81.6Z"/><path id="polygon70" d="M97.9,2.4H89.3V5.3H96V7.2H89.3v3.1h9v2H87.1V.4H97.9Z"/><path id="polygon72" d="M111.3,2.4h-4.8v9.9h-2.2V2.4H99.4V.4h11.9Z"/><path id="polygon74" d="M123.9,2.4h-8.6V5.3H122V7.2h-6.7v3.1h9v2H113.1V.4h10.8Z"/><path id="path76" d="M43.6,26.3a9.37,9.37,0,0,0,3.4-.7V22.2h2.1v4.6a10.49,10.49,0,0,1-5.6,1.6c-4,0-7-2.5-7-6.3s3-6.3,7-6.3A8.28,8.28,0,0,1,49,17.6l-1.2,1.7a7.13,7.13,0,0,0-4.3-1.4c-2.9-.1-4.7,1.8-4.7,4.2s1.9,4.2,4.8,4.2"/><path id="polygon78" d="M62.8,18.2H54.2v2.9h6.7V23H54.2v3.1h9v2H52V16.2H62.8Z"/><path id="path80" d="M67.5,28.1H65.3V16.2h2.2l7.7,8.9h.1c-.1-2.2-.1-4.1-.1-5.8V16.2h2.1V28.1H75.1l-7.7-8.9c.1,1.8.1,4.8.1,5.8Z"/><path id="polygon82" d="M91.3,18.2H82.7v2.9h6.7V23H82.7v3.1h9v2H80.5V16.2H91.3Z"/><path id="path84" d="M99.7,23.7H96.2v4.4H94V16.2h7.6a3.76,3.76,0,0,1,4.1,3.8,3.71,3.71,0,0,1-3.4,3.7l3.5,4.4H103Zm1.7-1.9c1.4,0,2.2-.7,2.2-1.7a1.71,1.71,0,0,0-1.9-1.8H96.3v3.6h5.1Z"/><path id="path86" d="M110.3,25.2l-1.4,2.9h-2.4l5.8-11.9h2.3l5.8,11.9H118l-1.4-2.9Zm1-1.9h4.6l-2.3-4.8Z"/><path id="polygon88" d="M124.3,26.1h7.9v2H122.1V16.2h2.2Z"/><path id="polygon90" d="M144.5,18.2h-8.6v2.9h6.7V23h-6.7v3.1h9v2H133.7V16.2h10.8Z"/></g></g></g></svg>