<svg xmlns="http://www.w3.org/2000/svg" viewBox="0 0 50.44 61.76"><g id="Calque_2" data-name="Calque 2"><g id="Calque_1-2" data-name="Calque 1"><g id="delete"><path id="Tracé_314" data-name="Tracé 314" d="M50.29,13.8,48.92,9.72a3.8,3.8,0,0,0-3.61-2.61H33.85V3.38A3.38,3.38,0,0,0,30.47,0H20A3.38,3.38,0,0,0,16.6,3.38V7.11H5.13A3.8,3.8,0,0,0,1.52,9.72L.16,13.8a3.06,3.06,0,0,0,1.93,3.88,3.22,3.22,0,0,0,1,.15H4.49l3.13,38.8a5.62,5.62,0,0,0,5.56,5.13H37.9a5.62,5.62,0,0,0,5.56-5.13l3.13-38.8h.79a3.06,3.06,0,0,0,3.06-3.06,3.22,3.22,0,0,0-.15-1ZM20.21,3.62h10V7.11h-10ZM39.85,56.33a2,2,0,0,1-2,1.81H13.18a2,2,0,0,1-1.95-1.81L8.12,17.83H43Zm-36-42.12L5,10.86a.17.17,0,0,1,.18-.13H45.31a.18.18,0,0,1,.18.13l1.12,3.35Z"/><path id="Tracé_315" data-name="Tracé 315" d="M34.08,56.21h.09A1.82,1.82,0,0,0,36,54.49l1.7-32.62a1.81,1.81,0,0,0-3.62-.19L32.37,54.3a1.82,1.82,0,0,0,1.71,1.91Z"/><path id="Tracé_316" data-name="Tracé 316" d="M14.54,54.5a1.82,1.82,0,0,0,1.81,1.71h.1a1.82,1.82,0,0,0,1.71-1.91L16.38,21.69a1.81,1.81,0,0,0-3.62.19Z"/><path id="Tracé_317" data-name="Tracé 317" d="M25.24,56.21a1.81,1.81,0,0,0,1.81-1.81h0V21.78a1.81,1.81,0,1,0-3.62,0h0V54.4A1.81,1.81,0,0,0,25.24,56.21Z"/></g></g></g></svg>