<svg xmlns="http://www.w3.org/2000/svg" viewBox="0 0 32.63 28.47"><g id="Calque_2" data-name="Calque 2"><g id="Calque_1-2" data-name="Calque 1"><g id="Groupe_174" data-name="Groupe 174"><ellipse id="Ellipse_39" data-name="Ellipse 39" cx="15.9" cy="5.5" rx="6" ry="5.5"/><ellipse id="Ellipse_40" data-name="Ellipse 40" cx="27.9" cy="7.5" rx="3" ry="3.5"/><circle id="Ellipse_41" data-name="Ellipse 41" cx="5.4" cy="7.5" r="3.5"/><path id="Tracé_203" data-name="Tracé 203" d="M8.55,14.24c-1.38-1.13-2.63-1-4.22-1A4.32,4.32,0,0,0,0,17.56v7a1.87,1.87,0,0,0,1.88,1.87c4.46,0,3.92.08,3.92-.19C5.8,21.26,5.22,17.65,8.55,14.24Z"/><path id="Tracé_204" data-name="Tracé 204" d="M17.83,13.28c-2.78-.23-5.2,0-7.3,1.73C7,17.81,7.71,21.58,7.71,26.19a2.24,2.24,0,0,0,2.23,2.24c13.46,0,14,.43,14.79-1.34.26-.6.19-.41.19-6.12,0-4.54-3.93-7.69-7.09-7.69Z"/><path id="Tracé_205" data-name="Tracé 205" d="M28.31,13.26c-1.6,0-2.85-.15-4.23,1,3.31,3.38,2.75,6.75,2.75,12,0,.28-.44.2,3.86.2a1.94,1.94,0,0,0,1.94-1.94V17.56A4.31,4.31,0,0,0,28.31,13.26Z"/></g></g></g></svg>